<?xml version="1.0" encoding="utf-8"?>
<!-- Generator: Adobe Illustrator 27.5.0, SVG Export Plug-In . SVG Version: 6.00 Build 0)  -->
<svg version="1.1" xmlns="http://www.w3.org/2000/svg" xmlns:xlink="http://www.w3.org/1999/xlink" x="0px" y="0px"
	 viewBox="0 0 3710 3710" style="enable-background:new 0 0 3710 3710;" xml:space="preserve">
<g id="Background">
	<g>
		<g>
			<rect style="fill:#FFFFFF;" width="3710" height="3710"/>
		</g>
	</g>
</g>
<g id="Illustration">
	<g>
		<path style="fill:#F4F7FA;" d="M2420.289,2844.962c189.177-272.826,42.274-541.808,258.282-720.241
			c188.215-155.475,388.734-24.763,507.558-153.342c181.002-195.862-21.124-783.927-384.704-1133.339
			c-375.422-360.792-1130.44-666.498-1776.684-283.235c-725.548,430.293-814.538,1432.818-462.399,2020.24
			c38.083,63.527,365.768,589.958,975.919,617.861C1568.748,3194.299,2164.551,3213.781,2420.289,2844.962z"/>
		<g style="opacity:0.5;">
			
				<linearGradient id="SVGID_1_" gradientUnits="userSpaceOnUse" x1="3118.9695" y1="2123.9636" x2="3672.6658" y2="2123.9636" gradientTransform="matrix(-0.9961 -0.0885 -0.0885 0.9961 6331.3701 285.8734)">
				<stop  offset="0.0036" style="stop-color:#E38DDD"/>
				<stop  offset="1" style="stop-color:#9571F6"/>
			</linearGradient>
			<path style="fill:url(#SVGID_1_);" d="M2488.699,2049.221l-4.193,33.633c-1.23,9.866,5.879,18.926,15.895,20.241l18.271,2.399
				c0.279,16.468,2.368,32.622,6.116,48.255l-16.26,6.559c-9.308,3.754-13.647,14.283-9.703,23.533l13.471,31.587
				c3.959,9.285,14.747,13.813,24.107,10.102l15.51-6.151c8.737,14.363,19.043,27.816,30.722,40.112l-9.875,12.615
				c-6.161,7.871-4.524,19.328,3.662,25.609l28.005,21.48c8.244,6.323,19.978,5.064,26.203-2.829l9.603-12.174
				c15.023,8.396,31.139,15.311,48.159,20.51l-1.927,15.327c-1.264,10.055,6.137,19.488,16.549,21.074l35.641,5.43
				c10.5,1.6,20.06-5.305,21.335-15.427l1.944-15.426c17.97-0.005,35.592-1.953,52.61-5.687l6.479,14.792
				c4.21,9.613,15.638,14.409,25.535,10.7l33.865-12.69c9.972-3.739,14.607-14.607,10.34-24.267l-6.822-15.442
				c15.104-8.742,29.169-19.081,41.91-30.833l14.466,10.7c8.767,6.485,21.222,5.149,27.813-3.001l22.517-27.846
				c6.621-8.189,4.818-20.078-4.02-26.539l-15.368-11.238c8.052-14.672,14.508-30.364,19.149-46.895l19.969,2.622
				c11.006,1.446,21.011-5.781,22.329-16.145l4.491-35.333c1.318-10.369-6.561-19.889-17.579-21.264l-21.165-2.641
				c-0.905-16.816-3.697-33.259-8.203-49.115l20.251-8.028c10.179-4.038,14.901-15.113,10.536-24.727l-14.853-32.703
				c-4.348-9.576-16.088-14.017-26.208-9.936l-21.13,8.522c-9.302-13.63-20.051-26.301-32.052-37.802l14.027-17.783
				c6.551-8.304,4.772-20.039-3.967-26.191l-29.682-20.898c-8.676-6.108-20.96-4.333-27.442,3.948l-14.197,18.137
				c-14.608-7.167-30.085-12.971-46.281-17.204l2.837-22.508c1.281-10.167-6.278-19.301-16.865-20.4l-35.939-3.731
				c-10.499-1.09-20.024,6.214-21.294,16.314l-2.81,22.358c-16.544,0.689-32.693,3.033-48.259,6.852l-8.976-20.316
				c-4.086-9.249-15.161-13.439-24.726-9.374l-32.486,13.808c-9.495,4.035-13.914,14.759-9.881,23.964l8.661,19.77
				c-13.764,8.327-26.599,17.985-38.291,28.816l-17.127-12.524c-8.162-5.967-19.74-4.295-25.867,3.721l-20.837,27.263
				c-6.099,7.981-4.483,19.293,3.616,25.285l16.194,11.977c-7.727,13.764-14.049,28.435-18.767,43.862l-19.369-2.417
				C2499.042,2032.364,2489.93,2039.351,2488.699,2049.221z M2612.091,2085.607c9.425-75.257,80.084-129.011,158.825-119.902
				c79.876,9.24,137.556,79.469,127.786,156.691c-9.763,77.17-82.991,130.474-162.52,119.256
				C2657.783,2230.593,2602.673,2160.814,2612.091,2085.607z"/>
			
				<linearGradient id="SVGID_00000018957671985582338640000009100102018748795033_" gradientUnits="userSpaceOnUse" x1="3871.0134" y1="1587.922" x2="4911.9639" y2="1587.922" gradientTransform="matrix(-0.9961 -0.0885 -0.0885 0.9961 6331.3701 285.8734)">
				<stop  offset="0.0036" style="stop-color:#E38DDD"/>
				<stop  offset="1" style="stop-color:#9571F6"/>
			</linearGradient>
			<path style="fill:url(#SVGID_00000018957671985582338640000009100102018748795033_);" d="M1435.799,1333.87l758.436,44.46
				c83.916,4.919,147.63,68.536,141.102,142.022l0,0c-6.529,73.485-80.677,127.308-164.408,120.316l-756.772-63.192
				c-71.118-5.939-123.239-64.514-117.34-130.909l0,0C1302.715,1380.173,1364.525,1329.692,1435.799,1333.87z"/>
			
				<linearGradient id="SVGID_00000082361596715416820130000014862332894487048360_" gradientUnits="userSpaceOnUse" x1="4191.0483" y1="1637.6888" x2="4575.6021" y2="2289.9688" gradientTransform="matrix(-0.9961 -0.0885 -0.0885 0.9961 6331.3701 285.8734)">
				<stop  offset="0" style="stop-color:#FF9085"/>
				<stop  offset="1" style="stop-color:#FB6FBB"/>
			</linearGradient>
			<path style="fill:url(#SVGID_00000082361596715416820130000014862332894487048360_);" d="M1637.022,1782.613l-2.933,20.885
				c-0.861,6.126,3.858,11.897,10.548,12.893l12.194,1.814c0.122,10.257,1.454,20.349,3.895,30.142l-10.881,3.812
				c-6.233,2.183-9.173,8.669-6.573,14.494l8.876,19.881c2.607,5.841,9.789,8.826,16.046,6.662l10.363-3.583
				c5.764,9.065,12.573,17.583,20.296,25.399l-6.62,7.691c-4.132,4.801-3.087,11.943,2.336,15.963l18.535,13.734
				c5.451,4.039,13.246,3.421,17.409-1.388l6.419-7.415c9.925,5.418,20.572,9.929,31.815,13.386l-1.337,9.466
				c-0.877,6.211,3.98,12.151,10.857,13.271l23.514,3.83c6.919,1.127,13.25-3.016,14.133-9.256l1.346-9.509
				c11.837,0.242,23.443-0.723,34.648-2.796l4.195,9.218c2.725,5.989,10.209,9.099,16.72,6.942l22.256-7.372
				c6.547-2.17,9.627-8.803,6.876-14.812l-4.401-9.611c9.926-5.174,19.173-11.342,27.554-18.395l9.404,6.796
				c5.696,4.115,13.83,3.471,18.165-1.448l14.8-16.794c4.349-4.935,3.228-12.27-2.501-16.376l-9.969-7.146
				c5.315-8.9,9.593-18.449,12.69-28.541l12.993,1.932c7.155,1.065,13.695-3.214,14.598-9.56l3.079-21.631
				c0.903-6.347-4.177-12.331-11.338-13.365l-13.767-1.988c-0.514-10.357-2.26-20.521-5.126-30.356l13.227-4.573
				c6.643-2.298,9.766-9.02,6.969-15.011l-9.523-20.391c-2.789-5.974-10.419-8.933-17.036-6.615l-13.824,4.843
				c-6.014-8.575-12.981-16.591-20.776-23.915l9.247-10.683c4.317-4.986,3.206-12.254-2.478-16.223l-19.326-13.499
				c-5.655-3.949-13.71-3.11-17.995,1.867l-9.389,10.906c-9.556-4.727-19.697-8.633-30.325-11.586l1.961-13.858
				c0.885-6.26-4.047-12.07-11.008-12.977l-23.66-3.083c-6.92-0.902-13.236,3.418-14.116,9.648l-1.948,13.792
				c-10.929,0.08-21.612,1.194-31.926,3.237l-5.858-12.793c-2.668-5.826-9.987-8.665-16.343-6.346l-21.61,7.883
				c-6.323,2.306-9.302,8.878-6.659,14.684l5.673,12.464c-9.176,4.892-17.746,10.634-25.566,17.132l-11.35-8.136
				c-5.413-3.88-13.135-3.076-17.251,1.79l-14.008,16.557c-4.103,4.85-3.068,11.928,2.315,15.818l10.755,7.77
				c-5.207,8.42-9.481,17.432-12.689,26.949l-12.923-1.866C1644.001,1772.3,1637.883,1776.485,1637.022,1782.613z
				 M1719.127,1807.481c6.562-46.574,53.627-78.574,105.597-71.388c52.504,7.26,90.007,51.672,83.276,99.11
				c-6.727,47.415-55,79.183-107.335,71.056C1748.863,1898.215,1712.568,1854.033,1719.127,1807.481z"/>
			
				<linearGradient id="SVGID_00000043418031652701075440000013897737467451768747_" gradientUnits="userSpaceOnUse" x1="4700.1284" y1="1482.3403" x2="5338.1636" y2="2457.4231" gradientTransform="matrix(-0.9961 -0.0885 -0.0885 0.9961 6331.3701 285.8734)">
				<stop  offset="0" style="stop-color:#FF9085"/>
				<stop  offset="1" style="stop-color:#FB6FBB"/>
			</linearGradient>
			<path style="fill:url(#SVGID_00000043418031652701075440000013897737467451768747_);" d="M910.453,1622.714l577.513,53.622
				c62.908,5.841,110.249,58.41,105.013,117.347l0,0c-5.236,58.938-60.969,100.828-123.758,93.649l-576.421-65.911
				c-55.01-6.29-95.221-55.344-90.398-109.632l0,0C807.224,1657.502,855.338,1617.597,910.453,1622.714z"/>
			<g>
				
					<linearGradient id="SVGID_00000150803869802494358120000015062167015253132479_" gradientUnits="userSpaceOnUse" x1="5341.1157" y1="1368.7463" x2="4826.3501" y2="2896.1631" gradientTransform="matrix(-0.9961 -0.0885 -0.0885 0.9961 6331.3701 285.8734)">
					<stop  offset="0.0036" style="stop-color:#E38DDD"/>
					<stop  offset="1" style="stop-color:#9571F6"/>
				</linearGradient>
				<path style="fill:url(#SVGID_00000150803869802494358120000015062167015253132479_);" d="M948.69,2004.653l-2.576,18.785
					c-0.756,5.511,3.174,10.809,8.784,11.836l10.223,1.872c0.047,9.254,1.109,18.382,3.104,27.261l-9.15,3.23
					c-5.243,1.85-7.745,7.645-5.595,12.949l7.341,18.099c2.156,5.317,8.165,8.143,13.426,6.309l8.711-3.037
					c4.784,8.281,10.447,16.088,16.879,23.277l-5.593,6.811c-3.491,4.251-2.654,10.71,1.872,14.433l15.461,12.718
					c4.546,3.739,11.081,3.323,14.595-0.935l5.418-6.565c8.284,5.062,17.175,9.319,26.569,12.638l-1.171,8.502
					c-0.769,5.578,3.265,11.016,9.015,12.148l19.655,3.869c5.781,1.138,11.1-2.479,11.873-8.081l1.178-8.538
					c9.897,0.431,19.606-0.228,28.984-1.892l3.455,8.372c2.244,5.438,8.48,8.371,13.932,6.547l18.63-6.235
					c5.479-1.834,8.088-7.746,5.824-13.202l-3.621-8.726c8.317-4.474,16.071-9.854,23.106-16.045l7.81,6.283
					c4.73,3.805,11.52,3.373,15.163-0.971l12.438-14.829c3.655-4.357,2.761-10.972-1.993-14.77l-8.274-6.611
					c4.483-7.904,8.105-16.41,10.745-25.427l10.823,1.982c5.959,1.092,11.435-2.632,12.223-8.319l2.689-19.387
					c0.789-5.688-3.411-11.165-9.375-12.232l-11.468-2.052c-0.37-9.323-1.769-18.496-4.104-27.396l11.056-3.854
					c5.552-1.937,8.193-7.919,5.895-13.361l-7.824-18.523c-2.292-5.428-8.639-8.24-14.17-6.288l-11.561,4.081
					c-4.97-7.833-10.739-15.184-17.204-21.93l7.778-9.425c3.63-4.399,2.745-10.96-1.977-14.646l-16.057-12.54
					c-4.7-3.67-11.432-3.08-15.038,1.313l-7.904,9.625c-7.958-4.45-16.41-8.173-25.276-11.049l1.716-12.438
					c0.775-5.618-3.316-10.952-9.13-11.913l-19.768-3.267c-5.784-0.956-11.092,2.804-11.862,8.399l-1.706,12.385
					c-9.146-0.153-18.093,0.631-26.738,2.26l-4.834-11.65c-2.202-5.306-8.316-8.016-13.652-6.058l-18.147,6.66
					c-5.311,1.948-7.844,7.813-5.661,13.101l4.686,11.353c-7.716,4.223-14.931,9.226-21.522,14.927l-9.472-7.568
					c-4.518-3.609-10.999-3.041-14.478,1.264l-11.842,14.651c-3.469,4.293-2.639,10.698,1.856,14.315l8.98,7.224
					c-4.414,7.49-8.049,15.535-10.792,24.055l-10.834-1.938C954.604,1995.487,949.446,1999.141,948.69,2004.653z M1017.42,2028.685
					c5.754-41.855,45.353-69.756,88.802-62.239c43.85,7.586,74.924,48.295,69.039,90.847c-5.883,42.533-46.388,70.226-90.107,61.941
					C1041.835,2111.024,1011.668,2070.523,1017.42,2028.685z"/>
				
					<linearGradient id="SVGID_00000014628908429698384620000014682339964836161949_" gradientUnits="userSpaceOnUse" x1="4488.438" y1="2062.6606" x2="4071.8215" y2="3298.8491" gradientTransform="matrix(-0.9961 -0.0885 -0.0885 0.9961 6331.3701 285.8734)">
					<stop  offset="0.0036" style="stop-color:#E38DDD"/>
					<stop  offset="1" style="stop-color:#9571F6"/>
				</linearGradient>
				<path style="fill:url(#SVGID_00000014628908429698384620000014682339964836161949_);" d="M1401.118,1978.227l643.783,80.077
					c70.394,8.756,123.66,66.578,118.111,129.042l0,0c-5.549,62.463-67.703,104.683-137.964,94.425l-642.563-93.815
					c-61.092-8.919-105.937-62.492-100.85-119.757l0,0C1286.723,2010.934,1339.91,1970.613,1401.118,1978.227z"/>
			</g>
			
				<linearGradient id="SVGID_00000020395283677131204470000008321408182994217143_" gradientUnits="userSpaceOnUse" x1="3438.3706" y1="2330.1931" x2="3790.8259" y2="2928.0278" gradientTransform="matrix(-0.9961 -0.0885 -0.0885 0.9961 6331.3701 285.8734)">
				<stop  offset="0" style="stop-color:#FF9085"/>
				<stop  offset="1" style="stop-color:#FB6FBB"/>
			</linearGradient>
			<path style="fill:url(#SVGID_00000020395283677131204470000008321408182994217143_);" d="M2343.619,2506.906l-2.79,19.294
				c-0.819,5.66,3.895,11.356,10.534,12.726l12.102,2.496c0.18,9.578,1.558,19.08,4.034,28.377l-10.766,2.842
				c-6.168,1.628-9.046,7.486-6.435,13.092l8.915,19.129c2.619,5.619,9.756,8.873,15.946,7.264l10.251-2.665
				c5.764,8.831,12.561,17.221,20.257,25.013l-6.516,6.741c-4.068,4.208-2.991,10.937,2.406,15.039l18.441,14.011
				c5.422,4.12,13.14,4.05,17.235-0.164l6.315-6.496c9.858,5.695,20.425,10.591,31.573,14.543l-1.27,8.736
				c-0.833,5.732,4.008,11.582,10.821,13.071l23.289,5.089c6.851,1.497,13.09-1.954,13.928-7.71l1.278-8.773
				c11.708,0.991,23.179,0.844,34.247-0.362l4.199,8.858c2.728,5.754,10.142,9.134,16.566,7.546l21.951-5.427
				c6.456-1.597,9.462-7.574,6.711-13.348l-4.401-9.234c9.778-4.174,18.877-9.318,27.116-15.341l9.325,6.937
				c5.647,4.2,13.675,4.127,17.927-0.171l14.517-14.672c4.265-4.311,3.118-11.211-2.559-15.406l-9.88-7.3
				c5.197-7.939,9.368-16.549,12.369-25.74l12.834,2.647c7.067,1.457,13.496-2.098,14.352-7.945l2.919-19.93
				c0.856-5.848-4.189-11.75-11.26-13.181l-13.598-2.753c-0.565-9.675-2.344-19.25-5.227-28.594l13.03-3.386
				c6.543-1.702,9.587-7.753,6.794-13.514l-9.51-19.608c-2.786-5.746-10.333-9.004-16.852-7.284l-13.622,3.596
				c-5.986-8.382-12.911-16.307-20.65-23.644l9.074-9.335c4.235-4.357,3.098-11.198-2.537-15.272l-19.164-13.857
				c-5.609-4.055-13.563-3.809-17.77,0.542l-9.218,9.536c-9.471-5.039-19.517-9.353-30.042-12.812l1.862-12.782
				c0.841-5.773-4.069-11.516-10.958-12.827l-23.417-4.453c-6.851-1.303-13.075,2.302-13.911,8.05l-1.85,12.726
				c-10.814-0.654-21.38-0.328-31.577,0.889l-5.871-12.319c-2.674-5.611-9.937-8.746-16.217-7.009l-21.357,5.908
				c-6.25,1.728-9.164,7.659-6.513,13.25l5.69,12.003c-9.062,3.951-17.52,8.737-25.23,14.277l-11.294-8.345
				c-5.387-3.98-13.036-3.744-17.088,0.521l-13.792,14.516c-4.04,4.253-2.974,10.925,2.385,14.913l10.706,7.963
				c-5.113,7.51-9.299,15.635-12.426,24.302l-12.824-2.596C2350.481,2497.745,2344.438,2501.245,2343.619,2506.906z
				 M2425.143,2535.524c6.236-43,52.66-69.719,104.126-59.574c51.955,10.241,89.26,54.083,82.874,97.819
				c-6.383,43.716-53.914,70.161-105.719,59.182C2455.106,2622.075,2418.91,2578.505,2425.143,2535.524z"/>
			
				<linearGradient id="SVGID_00000041267868918857250820000006635614549797798554_" gradientUnits="userSpaceOnUse" x1="3957.5168" y1="2150.1479" x2="4542.0737" y2="3043.5022" gradientTransform="matrix(-0.9961 -0.0885 -0.0885 0.9961 6331.3701 285.8734)">
				<stop  offset="0" style="stop-color:#FF9085"/>
				<stop  offset="1" style="stop-color:#FB6FBB"/>
			</linearGradient>
			<path style="fill:url(#SVGID_00000041267868918857250820000006635614549797798554_);" d="M1618.255,2308.598l576.755,89.156
				c62.534,9.667,109.834,61.905,104.978,116.573l0,0c-4.857,54.668-59.948,90.12-122.379,79.3l-575.81-99.791
				c-55.204-9.567-95.865-58.302-91.366-108.946l0,0C1514.932,2334.245,1562.96,2300.05,1618.255,2308.598z"/>
		</g>
		<g>
			<g>
				
					<linearGradient id="SVGID_00000122713706350386716390000003696373440509141143_" gradientUnits="userSpaceOnUse" x1="3281.7441" y1="1127.42" x2="3321.0125" y2="1186.5264" gradientTransform="matrix(0.6519 0.7583 0.7583 -0.6519 -449.1002 -178.588)">
					<stop  offset="0" style="stop-color:#FFC444"/>
					<stop  offset="0.9964" style="stop-color:#F36F56"/>
				</linearGradient>
				<path style="fill:url(#SVGID_00000122713706350386716390000003696373440509141143_);" d="M2527.404,1604.558
					c4.266-25.886,3.94-58.912,25.057-77.829c21.116-18.916,65.938,5.751,53.748,33.176c-12.189,27.425-34.56,44.227-53.036,66.055
					C2544.354,1618.543,2536.329,1611.957,2527.404,1604.558z"/>
				
					<linearGradient id="SVGID_00000083056620403526940050000006652093276508971183_" gradientUnits="userSpaceOnUse" x1="2853.5112" y1="1519.3118" x2="4251.6929" y2="2380.3535" gradientTransform="matrix(-1 0 0 1 5622.4331 0)">
					<stop  offset="0" style="stop-color:#311944"/>
					<stop  offset="1" style="stop-color:#893976"/>
				</linearGradient>
				<path style="fill:url(#SVGID_00000083056620403526940050000006652093276508971183_);" d="M2233.923,1677.175
					c16.808-25.462,105.946,42.003,197.096,4.236c46.047-19.079,75.553-57.947,94.69-93.579
					c22.833,14.041,23.248,12.76,46.081,26.801c3.345,41.776,1.985,114.403-40.607,183.629
					c-50.427,81.96-154.116,151.785-203.113,124.358c-12.612-7.06-16.125-17.499-30.598-55.209
					C2237.239,1710.476,2223.316,1693.245,2233.923,1677.175z"/>
			</g>
			<g>
				
					<linearGradient id="SVGID_00000173138602767550056750000011696965107181259411_" gradientUnits="userSpaceOnUse" x1="4654.4185" y1="1317.8339" x2="4684.2729" y2="1362.7706" gradientTransform="matrix(0.5956 0.8032 0.8032 -0.5956 -2710.1628 -1569.0217)">
					<stop  offset="0" style="stop-color:#AB316D"/>
					<stop  offset="1" style="stop-color:#792D3D"/>
				</linearGradient>
				<path style="fill:url(#SVGID_00000173138602767550056750000011696965107181259411_);" d="M1105.714,1412.239
					c0,0-0.807-49.156,14.434-65.657c15.241-16.5,58.088,2.225,47.821,25.433c-10.266,23.208-39.79,55.498-39.79,55.498
					L1105.714,1412.239z"/>
				
					<linearGradient id="SVGID_00000152946042388678266290000004638253461483096989_" gradientUnits="userSpaceOnUse" x1="4146.4194" y1="2292.5891" x2="3424.8096" y2="1712.0765" gradientTransform="matrix(-0.9759 -0.2182 -0.2182 0.9759 5423.0762 264.3044)">
					<stop  offset="0" style="stop-color:#AA80F9"/>
					<stop  offset="0.9964" style="stop-color:#6165D7"/>
				</linearGradient>
				<path style="fill:url(#SVGID_00000152946042388678266290000004638253461483096989_);" d="M772.146,1526.704
					c16.67-32.115,130.157,36.418,232.985-19.412c51.947-28.205,81.936-77.701,100.093-122.096
					c28.668,13.732,28.999,12.171,57.669,25.905c-2.528,24.296-14.845,114.562-91.463,181.248
					c-19.532,17-82.146,59.41-164.853,113.597C819.931,1762.715,756.43,1556.979,772.146,1526.704z"/>
			</g>
			<g>
				<g>
					
						<linearGradient id="SVGID_00000024719837978732047180000015797255999810867604_" gradientUnits="userSpaceOnUse" x1="1969.7896" y1="330.7308" x2="1436.1838" y2="2533.0623">
						<stop  offset="0" style="stop-color:#311944"/>
						<stop  offset="1" style="stop-color:#893976"/>
					</linearGradient>
					<path style="fill:url(#SVGID_00000024719837978732047180000015797255999810867604_);" d="M2828.218,541.297L554.724,426.975
						c-80.993-4.073-171.227,60.686-171.227,177.504l25.052,680.198c0,116.818,65.181,218.308,146.174,226.746l2265.598,256.858
						c50.813,5.293,107.444-37.207,142.314-82.194l268.117-345.905c67.593-87.204,67.593-230.989,0-328.633l-268.117-387.317
						C2927.766,573.859,2879.03,543.852,2828.218,541.297z"/>
					
						<linearGradient id="SVGID_00000129902880751008201470000012744768652392158631_" gradientUnits="userSpaceOnUse" x1="1944.092" y1="353.3016" x2="1410.4863" y2="2555.6331">
						<stop  offset="0" style="stop-color:#FFC444"/>
						<stop  offset="0.9964" style="stop-color:#F36F56"/>
					</linearGradient>
					<path style="fill:url(#SVGID_00000129902880751008201470000012744768652392158631_);" d="M2788.854,560.557L515.36,446.235
						c-80.993-4.073-146.174,87.35-146.174,204.168v653.534c0,116.818,65.181,218.308,146.174,226.746l2273.494,236.837
						c50.813,5.293,99.548-17.186,134.419-62.173l268.117-345.905c67.593-87.203,67.593-230.989,0-328.633l-268.117-387.316
						C2888.402,593.119,2839.667,563.112,2788.854,560.557z"/>
					<path style="opacity:0.41;fill:#FFFFFF;" d="M515.361,1472.998c-59.037-5.981-106.811-80.155-106.811-165.376V652.799
						c0-85.225,47.774-152.019,106.811-148.882l2273.492,120.839c36.905,1.962,72.599,24.051,97.872,60.665l267.241,387.18
						c48.828,70.742,48.828,176.066,0,239.268l-267.241,345.905c-25.273,32.708-60.963,49.283-97.872,45.544L515.361,1472.998z"/>
					<g style="opacity:0.3;">
						
							<linearGradient id="SVGID_00000124867694526814577280000009721385556076262317_" gradientUnits="userSpaceOnUse" x1="1807.59" y1="58.0923" x2="1182.2334" y2="2639.1035">
							<stop  offset="0" style="stop-color:#FFC444"/>
							<stop  offset="0.9964" style="stop-color:#F36F56"/>
						</linearGradient>
						<path style="fill:url(#SVGID_00000124867694526814577280000009721385556076262317_);" d="M2128.422,1133.266
							c-606.118-382.924-1147.935,3.286-1441.842-450.136c-45.823-70.693-78.489-150.473-101.538-233.392l-69.682-3.504
							c-80.993-4.073-146.174,87.349-146.174,204.168v653.534c0,116.819,65.181,218.309,146.174,226.746l2183.898,227.504
							C2498.122,1423.247,2297.107,1239.837,2128.422,1133.266z"/>
					</g>
				</g>
				<g style="opacity:0.75;">
					<path style="fill:#FFFFFF;" d="M786.97,1168.298c-11.039,17.937-26.624,31.229-46.731,39.876
						c-20.069,8.63-42.261,11.871-66.562,9.734c-25.454-2.238-47.724-12.164-66.831-29.757
						c-19.071-17.559-33.77-41.891-44.11-72.999c-10.332-31.073-15.627-67.003-15.892-107.814v-28.57
						c0-41.941,4.895-77.898,14.692-107.896c9.807-30.024,23.965-52.554,42.498-67.589c18.565-15.06,40.357-21.77,65.397-20.105
						c34.969,2.326,62.396,16.141,82.217,41.472c19.858,25.383,31.642,61.189,35.323,107.396l-59.55-4.373
						c-2.712-24.459-8.708-42.647-17.98-54.558c-9.266-11.898-22-18.413-38.19-19.546c-20.606-1.442-36.268,8.575-47.008,30.025
						c-10.731,21.431-16.158,54.035-16.291,97.83v26.92c0,44.193,5.829,78.053,17.499,101.604
						c11.683,23.578,28.828,36.332,51.464,38.245c22.821,1.928,39.126-3.679,48.88-16.833v-73.079l-55.353-4.421v-64.169
						l116.529,8.938V1168.298z"/>
					<path style="fill:#FFFFFF;" d="M1065.832,815.468v283.883c0,47.168-10.47,83.58-31.372,109.199
						c-20.863,25.573-49.297,36.749-85.239,33.588c-35.266-3.101-63.185-18.761-83.817-46.946
						c-20.591-28.128-31.076-65.212-31.487-111.3V799.975l61.83,4.131v282.135c0,27.99,4.72,48.786,14.17,62.396
						c9.456,13.626,22.553,21.149,39.303,22.564c35.108,2.966,52.987-21.688,53.544-73.977V811.255L1065.832,815.468z"/>
					<path style="fill:#FFFFFF;" d="M1185.262,1256.942l-63.586-5.573v-432.17l63.586,4.248V1256.942z"/>
					<path style="fill:#FFFFFF;" d="M1244.534,1262.137V827.407l96.232,6.429c27.658,1.848,52.461,12.177,74.388,31.008
						c21.973,18.873,39.155,44.786,51.524,77.739c12.382,32.994,18.58,69.941,18.58,110.814v20.236
						c0,40.876-6.089,76.723-18.252,107.518c-12.151,30.762-29.262,53.926-51.309,69.5c-22.002,15.541-46.769,22.193-74.284,19.979
						L1244.534,1262.137z M1308.877,904.484v291.114l31.241,2.631c25.348,2.134,44.762-7.752,58.206-29.689
						c13.461-21.961,20.342-54.419,20.633-97.351v-23.183c0-44.559-6.666-78.815-19.983-102.749
						c-13.302-23.902-32.715-36.74-58.21-38.532L1308.877,904.484z"/>
					<path style="fill:#FFFFFF;" d="M1727.351,1111.692l-128.153-10.075v118.426l150.559,12.677v73.701l-216.698-18.994V846.682
						l216.249,14.447v74.311l-150.111-10.55v105.369l128.153,9.644V1111.692z"/>
					<path style="fill:#FFFFFF;" d="M1857.062,1241.756l145.296,12.234v74.573l-213.05-18.674V863.8l67.754,4.526V1241.756z"/>
					<path style="fill:#FFFFFF;" d="M2115.702,1338.498l-69.394-6.083V880.97l69.394,4.636V1338.498z"/>
					<path style="fill:#FFFFFF;" d="M2460.347,1368.707l-71.609-6.277l-138.075-311.942v299.839l-70.257-6.158V889.928l70.257,4.694
						l138.313,311.607V903.862l71.371,4.768V1368.707z"/>
					<path style="fill:#FFFFFF;" d="M2736.278,1191.012l-140.519-11.047v123.991l165.096,13.901v77.19l-237.586-20.825V912.833
						l237.094,15.839v77.829l-164.604-11.569v110.32l140.519,10.575V1191.012z"/>
				</g>
			</g>
			<g>
				
					<linearGradient id="SVGID_00000129912043834115007840000003197707338025010877_" gradientUnits="userSpaceOnUse" x1="2942.4016" y1="2819.6133" x2="3505.9509" y2="3627.5325" gradientTransform="matrix(-1 0 0 1 5622.4331 0)">
					<stop  offset="0" style="stop-color:#FFC444"/>
					<stop  offset="0.9964" style="stop-color:#F36F56"/>
				</linearGradient>
				<path style="fill:url(#SVGID_00000129912043834115007840000003197707338025010877_);" d="M2477.985,3075.85
					c6.305,36.733,12.612,73.465,18.917,110.197c-2.865,4.13-9.842,12.835-20.727,13.975c-12.184,1.277-22.005-7.69-25.646-11.39
					c-3.098-50.927-11.714-86.877-21.701-112.782H2477.985z"/>
				
					<linearGradient id="SVGID_00000092416890145144021100000010285058952891837881_" gradientUnits="userSpaceOnUse" x1="3500.4968" y1="1704.298" x2="3226.2046" y2="3070.7769" gradientTransform="matrix(-1 0 0 1 5622.4331 0)">
					<stop  offset="0" style="stop-color:#AA80F9"/>
					<stop  offset="0.9964" style="stop-color:#6165D7"/>
				</linearGradient>
				<path style="fill:url(#SVGID_00000092416890145144021100000010285058952891837881_);" d="M2308.097,2131.858
					c50.879,106.832,77.143,261.885,113.077,437.92c32.275,158.118,70.496,398.695,81.541,508.601
					c-10.129,7.109-84.974,36.161-88.937,21.611c-139.392-511.755-213.474-710.246-243.124-741.008
					c-18.233-18.916-52.291-13.375-55.753-70.069c-0.156-2.557-0.066-4.864,0.114-7.108
					C2121.332,2203.333,2272.358,2144.784,2308.097,2131.858z"/>
				<g>
					
						<linearGradient id="SVGID_00000041263119279204508620000007827379232002140547_" gradientUnits="userSpaceOnUse" x1="4315.5508" y1="2509.7361" x2="4378.77" y2="2509.7361" gradientTransform="matrix(-0.9913 0.1317 0.1317 0.9913 5701.9019 -179.8778)">
						<stop  offset="0" style="stop-color:#40447E"/>
						<stop  offset="0.9964" style="stop-color:#3C3B6B"/>
					</linearGradient>
					<path style="fill:url(#SVGID_00000041263119279204508620000007827379232002140547_);" d="M1721.805,2809.738
						c-9.884-4.114-22.056-3.71-30.114,5.634c-15.801,18.322,3.034,57.154,11.23,74.124c9.301,19.256,27.274,72.312,53.335,61.228
						c11.601-4.933,2.754-39.887-3.266-50.485c-7.553-13.295-9.141-28.446-10.453-43.96c-0.528-6.238-2.815-14.683-5.186-20.699
						C1733.783,2826.534,1731.688,2813.851,1721.805,2809.738z"/>
					
						<linearGradient id="SVGID_00000152984516623286675440000018445264003911577279_" gradientUnits="userSpaceOnUse" x1="3557.4971" y1="2376.6484" x2="4121.0474" y2="3184.5688" gradientTransform="matrix(-1 0 0 1 5622.4331 0)">
						<stop  offset="0" style="stop-color:#FFC444"/>
						<stop  offset="0.9964" style="stop-color:#F36F56"/>
					</linearGradient>
					<path style="fill:url(#SVGID_00000152984516623286675440000018445264003911577279_);" d="M1714.018,2848.694
						c8.569,15.111,37.932-7.606,52.891-13.582c14.96-5.975,17.257-0.491,10.567-12.652c-6.691-12.162-15.486-24.052-31.788-16.833
						C1729.385,2812.845,1705.45,2833.584,1714.018,2848.694z"/>
					
						<linearGradient id="SVGID_00000066490987641712810720000002077845679927423875_" gradientUnits="userSpaceOnUse" x1="3106.1997" y1="1789.701" x2="3819.3643" y2="2904.3308" gradientTransform="matrix(-1 0 0 1 5622.4331 0)">
						<stop  offset="0" style="stop-color:#AA80F9"/>
						<stop  offset="0.9964" style="stop-color:#6165D7"/>
					</linearGradient>
					<path style="fill:url(#SVGID_00000066490987641712810720000002077845679927423875_);" d="M2266.285,2290.907
						c0.866,1.413-22.933-1.179-24.149,8.229c-8.264,63.946-165.511,460.912-201.563,471.702
						c-4.11,1.229-222.587,61.243-282.606,90.6c-29.502-25.518-20.271-74.202-12.468-83.95
						c21.855-15.932,204.985-119.764,217.772-121.354c19.47-67.325,23.132-367.602,111.401-399.577
						C2092.305,2250.167,2237.683,2244.211,2266.285,2290.907z"/>
				</g>
				
					<linearGradient id="SVGID_00000061443518728464800460000003748006242389361839_" gradientUnits="userSpaceOnUse" x1="3368.176" y1="1607.0848" x2="3580.9553" y2="2361.7861" gradientTransform="matrix(-1 0 0 1 5622.4331 0)">
					<stop  offset="0" style="stop-color:#311944"/>
					<stop  offset="1" style="stop-color:#893976"/>
				</linearGradient>
				<path style="fill:url(#SVGID_00000061443518728464800460000003748006242389361839_);" d="M2002.753,2265.888
					c27.429-361.569,114.887-509.582,107.243-553.519c11.007-7.914,54.494-20.493,153.012-7.524
					c8.419,3.093,30.893,12.161,53.166,32.523c0,0,5.177,4.721,12.259,13.015c-69.21,13.07-139.71,52.479-165.089,108.311
					c-43.961,106.763,37.681,226.087,0,320.291c-19.802,49.504-51.481,93.383-89.299,134.405
					C2030.806,2302.606,2001.172,2286.728,2002.753,2265.888z"/>
				
					<linearGradient id="SVGID_00000084510463430717335830000007059214838968636549_" gradientUnits="userSpaceOnUse" x1="3245.8442" y1="1537.2236" x2="3458.6292" y2="2291.9441" gradientTransform="matrix(-1 0 0 1 5622.4331 0)">
					<stop  offset="0" style="stop-color:#311944"/>
					<stop  offset="1" style="stop-color:#893976"/>
				</linearGradient>
				<path style="fill:url(#SVGID_00000084510463430717335830000007059214838968636549_);" d="M2316.175,1737.368
					c0,0,26.213,23.853,41.497,58.896c23.027,52.793-1.771,98.115-9.21,184.33c-8.16,94.575,3.383,252.125,29.99,308.568
					c0.463,0.983,1.616,3.789,1.146,7.347c-7.192,54.552-382.369,42.189-376.845-30.621
					c27.429-361.569,114.887-509.582,107.243-553.518c11.007-7.914,54.494-20.494,153.012-7.525
					C2271.427,1707.938,2293.902,1717.007,2316.175,1737.368z"/>
				
					<linearGradient id="SVGID_00000145770997505915483150000016502606577699441851_" gradientUnits="userSpaceOnUse" x1="3379.2454" y1="1930.3904" x2="3106.3491" y2="3289.9155" gradientTransform="matrix(-1 0 0 1 5622.4331 0)">
					<stop  offset="0" style="stop-color:#AA80F9"/>
					<stop  offset="0.9964" style="stop-color:#6165D7"/>
				</linearGradient>
				<path style="fill:url(#SVGID_00000145770997505915483150000016502606577699441851_);" d="M2253.931,2228.011h90.481
					c29.342,95.635,50.485,213.041,76.761,341.767c32.275,158.118,70.496,398.695,81.541,508.602
					c-2.899,2.035-11.112,5.869-21.438,9.963c-29.472-83.837-73.495-164.073-104.406-249.935
					c-31.401-100.484,25.121-219.808-18.84-320.29C2323.368,2422.792,2270.827,2327.461,2253.931,2228.011z"/>
				
					<linearGradient id="SVGID_00000075850683327071866200000001889764611927136178_" gradientUnits="userSpaceOnUse" x1="3354.4797" y1="1989.2921" x2="3448.062" y2="2321.2158" gradientTransform="matrix(-1 0 0 1 5622.4331 0)">
					<stop  offset="0" style="stop-color:#311944"/>
					<stop  offset="1" style="stop-color:#893976"/>
				</linearGradient>
				<path style="fill:url(#SVGID_00000075850683327071866200000001889764611927136178_);" d="M2238.708,2166.424
					c43.307,0,81.31-28.277,108.392-67.015c3.464,75.987,14.312,153.604,31.353,189.752c0.463,0.983,1.616,3.789,1.146,7.347
					c-7.192,54.553-382.369,42.189-376.845-30.621c1.509-19.887,3.227-39.017,5.073-57.63
					C2079.58,2175.732,2162.711,2161.358,2238.708,2166.424z"/>
				<g>
					
						<linearGradient id="SVGID_00000088112633732491822750000010782068480707028128_" gradientUnits="userSpaceOnUse" x1="3561.4192" y1="2234.5537" x2="3601.1147" y2="2294.3035" gradientTransform="matrix(-1 0 0 1 5622.4331 0)">
						<stop  offset="0" style="stop-color:#FFC444"/>
						<stop  offset="0.9964" style="stop-color:#F36F56"/>
					</linearGradient>
					<path style="fill:url(#SVGID_00000088112633732491822750000010782068480707028128_);" d="M2050.072,2201.436
						c17.032,20.329,42.564,41.843,43.149,70.496c0.585,28.653-47.861,46.756-60.852,19.339
						c-12.991-27.417-11.128-55.637-15.686-84.186C2028.182,2205.212,2038.519,2203.402,2050.072,2201.436z"/>
					
						<linearGradient id="SVGID_00000130642728858623132470000005362804100290725269_" gradientUnits="userSpaceOnUse" x1="3297.6455" y1="1432.0125" x2="3834.3354" y2="2315.3826" gradientTransform="matrix(-1 0 0 1 5622.4331 0)">
						<stop  offset="0" style="stop-color:#311944"/>
						<stop  offset="1" style="stop-color:#893976"/>
					</linearGradient>
					<path style="fill:url(#SVGID_00000130642728858623132470000005362804100290725269_);" d="M2175.352,1739.684
						c-5.225-10.988-12.097-20.537-17.488-25.919c-25.681-25.634-76.465-15.295-95.446-11.431
						c-48.807,9.936-165.328,52.845-208.123,155.346c-48.902,117.13,11.444,280.993,161.22,368.341
						c16.969-1.133,35.386-11.569,51.871-17.131c-72.501-130.137-67.556-203.656-43.509-247.73
						c39.32-72.07,162.792-126.049,161.974-175.421C2185.44,1760.897,2175.352,1739.684,2175.352,1739.684z"/>
				</g>
				<path style="fill:#444B8C;" d="M2582.99,3144.803c-4.298-7.091-36.202-6.123-52.859,1.421
					c-27.944,12.657-45.613,37.721-52.756,40.794c-16.288,7.006-30.567-1.176-31.932-0.91c0,0-12.084,20.336,5.911,31.963
					C2469.351,3229.698,2609.52,3188.581,2582.99,3144.803z"/>
				<g>
					
						<linearGradient id="SVGID_00000179614900975416100020000016063970199293899171_" gradientUnits="userSpaceOnUse" x1="-1471.7048" y1="2067.8921" x2="-1465.1968" y2="1894.5378" gradientTransform="matrix(0.9899 0.1416 -0.1416 0.9899 3957.4316 -71.001)">
						<stop  offset="0" style="stop-color:#FFC444"/>
						<stop  offset="0.9964" style="stop-color:#F36F56"/>
					</linearGradient>
					<path style="fill:url(#SVGID_00000179614900975416100020000016063970199293899171_);" d="M2199.735,1630.04
						c0,0,2.308,58.968-2.833,69.871c-5.14,10.903,8.706,26.759,37.217,33.971c28.512,7.212,8.784-58.276,8.784-58.276
						L2199.735,1630.04z"/>
					
						<linearGradient id="SVGID_00000157278606108187002420000013491572441292893611_" gradientUnits="userSpaceOnUse" x1="2924.8606" y1="2197.2205" x2="2839.3323" y2="1979.9943" gradientTransform="matrix(-0.9794 -0.2019 -0.2019 0.9794 5444.3032 184.2367)">
						<stop  offset="0" style="stop-color:#311944"/>
						<stop  offset="1" style="stop-color:#6B3976"/>
					</linearGradient>
					<path style="fill:url(#SVGID_00000157278606108187002420000013491572441292893611_);" d="M2291.531,1617.241
						c13.354-11.675,19.086-35.753,10.27-53.587c-7.585-15.345-23.483-20.646-33-23.822c-27.579-9.203-65.722-4.896-83.591,18.513
						c-10.588,13.872-1.418,49.243-0.137,55.523c1.45,7.106,6.093,10.412,9.787,16.33c5.12,8.205,13.099,21.218,26.03,42.891
						c2.429-5.083,5.799-11.299,10.453-17.83c1.79-2.512,8.922-12.299,18.155-19.717
						C2268.006,1620.674,2278.872,1628.31,2291.531,1617.241z"/>
					
						<linearGradient id="SVGID_00000010293961363467877090000004203347995699289531_" gradientUnits="userSpaceOnUse" x1="-1461.3429" y1="1904.4801" x2="-1465.276" y2="2221.3696" gradientTransform="matrix(0.9899 0.1416 -0.1416 0.9899 3957.4316 -71.001)">
						<stop  offset="0" style="stop-color:#FFC444"/>
						<stop  offset="0.9964" style="stop-color:#F36F56"/>
					</linearGradient>
					<path style="fill:url(#SVGID_00000010293961363467877090000004203347995699289531_);" d="M2200.21,1652.804
						c0,0,12.178,34.387,49.678,39.75c33.576,4.802,54.033-68.457,36.187-88.665c-5.953-6.742-19.63-11.894-31.802-11.089
						c-7.188,0.476-10.08,2.815-21.84,3.365c-10.847,0.506-13.514-1.245-17.168,0.717c-4.572,2.454-9.101,9.87-7.177,32.948
						c-4.975-7.727-12.044-11.777-17.951-10.367c-0.942,0.224-3.542,1.295-5.315,3.371
						C2178.411,1630.345,2183.882,1642.808,2200.21,1652.804z"/>
					
						<linearGradient id="SVGID_00000132780747893999544810000013508038609641675179_" gradientUnits="userSpaceOnUse" x1="2898.7395" y1="2207.6304" x2="2813.1177" y2="1990.1666" gradientTransform="matrix(-0.9794 -0.2019 -0.2019 0.9794 5444.3032 184.2367)">
						<stop  offset="0" style="stop-color:#311944"/>
						<stop  offset="1" style="stop-color:#6B3976"/>
					</linearGradient>
					<path style="fill:url(#SVGID_00000132780747893999544810000013508038609641675179_);" d="M2214.7,1592.123
						c1.347,1.528-4.787,6.464-6.923,14.82c-4.147,16.225,8.296,39.359,24.854,44.579c9.789,3.085,13.802-2.364,30.691-0.638
						c10.458,1.069,18.701,4.158,23.814,6.455c1.42,19.047-7.228,35.926-20.975,41.709c-14.803,6.229-30.169-2.662-36.594-6.38
						c-4.3-2.488-18.078-10.429-22.959-25.621c-5.086-15.83,4.609-22.69-2.623-34.194c-3.648-5.803-9.334-9.179-13.334-19.769
						c-1.086-2.878-1.694-5.35-2.039-6.996C2199.062,1598.829,2212.75,1589.913,2214.7,1592.123z"/>
					
						<linearGradient id="SVGID_00000000205559713666335390000015586964109980229264_" gradientUnits="userSpaceOnUse" x1="2814.9434" y1="2076.605" x2="2819.3953" y2="2116.2932" gradientTransform="matrix(-0.9794 -0.2019 -0.2019 0.9794 5444.3032 184.2367)">
						<stop  offset="0" style="stop-color:#FFC444"/>
						<stop  offset="1" style="stop-color:#F36F56"/>
					</linearGradient>
					<path style="fill:url(#SVGID_00000000205559713666335390000015586964109980229264_);" d="M2273.712,1661.472
						c0,0-7.939,2.232-20.154-1.058c-0.595-0.161-1.294-0.122-1.435,0.172c-0.532,1.112,6.295,8.037,14.033,7.517
						c5.495-0.369,10.565-4.432,10.128-5.828C2276.1,1661.684,2274.91,1661.507,2273.712,1661.472z"/>
				</g>
			</g>
			<g>
				
					<linearGradient id="SVGID_00000072992796536223026610000010825778621293535655_" gradientUnits="userSpaceOnUse" x1="4277.7056" y1="3028.8979" x2="4334.3853" y2="2853.3032" gradientTransform="matrix(-0.997 -0.0771 -0.0771 0.997 5563.064 95.2789)">
					<stop  offset="0" style="stop-color:#AB316D"/>
					<stop  offset="1" style="stop-color:#792D3D"/>
				</linearGradient>
				<path style="fill:url(#SVGID_00000072992796536223026610000010825778621293535655_);" d="M1059.899,2673.405
					c5.101,29.713,10.202,59.425,15.302,89.137c-2.317,3.34-7.96,10.382-16.765,11.304c-9.855,1.032-17.799-6.22-20.745-9.213
					c-2.506-41.194-9.475-70.272-17.554-91.228H1059.899z"/>
				
					<linearGradient id="SVGID_00000150102981518205760890000005305862420922975880_" gradientUnits="userSpaceOnUse" x1="4570.4272" y1="2550.6221" x2="4925.5654" y2="1568.2245" gradientTransform="matrix(-1 0 0 1 5622.4331 0)">
					<stop  offset="0" style="stop-color:#444B8C"/>
					<stop  offset="0.9964" style="stop-color:#3E4177"/>
				</linearGradient>
				<path style="fill:url(#SVGID_00000150102981518205760890000005305862420922975880_);" d="M922.481,1909.83
					c41.155,86.414,62.4,211.833,91.465,354.224c26.107,127.898,39.215,329.124,48.149,418.024
					c-8.193,5.75-38.583,24.385-41.789,12.615c-112.751-413.948-178.176-539.154-202.16-564.037
					c-14.747-15.301-49.135-47.93-51.937-93.789c-0.126-2.068-0.053-3.934,0.093-5.75
					C771.412,1967.645,893.573,1920.285,922.481,1909.83z"/>
				
					<linearGradient id="SVGID_00000049219412088467071480000003610684470204993193_" gradientUnits="userSpaceOnUse" x1="4667.8765" y1="2226.8459" x2="4504.1426" y2="3246.1433" gradientTransform="matrix(-1 0 0 1 5622.4331 0)">
					<stop  offset="0" style="stop-color:#444B8C"/>
					<stop  offset="0.9964" style="stop-color:#3E4177"/>
				</linearGradient>
				<path style="fill:url(#SVGID_00000049219412088467071480000003610684470204993193_);" d="M885.162,1924.913
					c16.223-7.233,29.873-12.39,37.319-15.083c41.155,86.414,62.4,211.833,91.466,354.224
					c26.107,127.898,39.214,329.123,48.148,418.024c-1.883,1.322-4.965,3.331-8.592,5.488
					c-51.715-189.295-39.748-383.223-154.221-560.656C858.119,2063.294,868.671,1994.977,885.162,1924.913z"/>
				<g>
					
						<linearGradient id="SVGID_00000070098399450162480130000000621586586190294159_" gradientUnits="userSpaceOnUse" x1="5552.2031" y1="1977.92" x2="5603.3398" y2="1977.92" gradientTransform="matrix(-0.9913 0.1317 0.1317 0.9913 5701.9019 -179.8778)">
						<stop  offset="0" style="stop-color:#40447E"/>
						<stop  offset="0.9964" style="stop-color:#3C3B6B"/>
					</linearGradient>
					<path style="fill:url(#SVGID_00000070098399450162480130000000621586586190294159_);" d="M432.106,2458.153
						c-7.995-3.327-17.841-3.001-24.358,4.558c-12.781,14.82,2.454,46.231,9.084,59.957c7.523,15.576,22.06,58.491,43.14,49.527
						c9.385-3.99,2.229-32.264-2.642-40.837c-6.11-10.754-7.394-23.009-8.455-35.558c-0.427-5.046-2.276-11.876-4.195-16.742
						C441.795,2471.739,440.101,2461.48,432.106,2458.153z"/>
					
						<linearGradient id="SVGID_00000070090037789730095150000007294430424227954323_" gradientUnits="userSpaceOnUse" x1="5525.9077" y1="1937.9978" x2="5582.4712" y2="1937.9978" gradientTransform="matrix(-0.9913 0.1317 0.1317 0.9913 5701.9019 -179.8778)">
						<stop  offset="0" style="stop-color:#AB316D"/>
						<stop  offset="1" style="stop-color:#792D3D"/>
					</linearGradient>
					<path style="fill:url(#SVGID_00000070090037789730095150000007294430424227954323_);" d="M425.807,2489.664
						c6.931,12.222,30.682-6.152,42.782-10.987c12.1-4.833,13.959-0.397,8.547-10.234c-5.412-9.837-12.527-19.455-25.712-13.615
						C438.238,2460.667,418.877,2477.441,425.807,2489.664z"/>
					
						<linearGradient id="SVGID_00000149366447571401261270000011219138686217567628_" gradientUnits="userSpaceOnUse" x1="4810.5249" y1="2173.7805" x2="5248.3501" y2="2173.7805" gradientTransform="matrix(-0.9998 0.0217 0.0217 0.9998 5643.0972 -33.3988)">
						<stop  offset="0" style="stop-color:#40447E"/>
						<stop  offset="0.9964" style="stop-color:#3C3B6B"/>
					</linearGradient>
					<path style="fill:url(#SVGID_00000149366447571401261270000011219138686217567628_);" d="M872.524,2038.481
						c0.7,1.143,4.644-0.503,3.661,7.107c-6.686,51.724-168.728,363.929-197.89,372.657c-3.324,0.994-168.253,51.273-216.801,75.019
						c-23.863-20.641-11.043-39.423-4.731-47.308c17.678-12.887,171.58-100.057,181.923-101.343
						c15.749-54.458,7.448-308.053,78.847-333.917C731.796,2005.528,849.388,2000.709,872.524,2038.481z"/>
				</g>
				
					<linearGradient id="SVGID_00000178172332204361393940000010739400237374169756_" gradientUnits="userSpaceOnUse" x1="5035.0986" y1="1328.3044" x2="5711.1982" y2="1756.7236" gradientTransform="matrix(-0.9913 0.1317 0.1317 0.9913 5701.9019 -179.8778)">
					<stop  offset="0" style="stop-color:#AA80F9"/>
					<stop  offset="0.9964" style="stop-color:#6165D7"/>
				</linearGradient>
				<path style="fill:url(#SVGID_00000178172332204361393940000010739400237374169756_);" d="M926.526,1579.04
					c15.943,14.574,23.685,28.921,33.566,47.641c15.67,29.681,24.614,46.622,26.696,68.843c4.003,42.72-19.943,77.318-31.656,91.952
					c-16.817,98.059-20.679,120.995-20.657,121.29l0.045,0.59c2.369,10.654,6.767,27.455,15.032,46.937
					c21.565,50.833,43.182,58.008,40.526,77.714c-4.657,34.553-77.263,58.077-134.673,59.571
					c-30.428,0.791-34.028-5.192-60.063-6.279c-109.357-4.567-145.978,96.82-219.106,81.757
					c-51.978-10.707-60.338-68.168-126.421-70.951c-23.074-0.972-47.666,4.823-50.915-3.473c-3.169-8.09,16.046-24.261,32.827-33.61
					c36.204-20.169,72.784-15.103,88.716-14.711c71.379,1.752,132.894-80.402,169.806-129.699
					c104.353-139.369,78.177-310.558,71.995-346.098c8.903-6.401,41.591-28.272,121.279-17.782
					C890.332,1555.234,908.51,1562.57,926.526,1579.04z"/>
				
					<linearGradient id="SVGID_00000047061351799213218540000013343430904121873033_" gradientUnits="userSpaceOnUse" x1="4573.2827" y1="1840.6213" x2="5124.5571" y2="2189.9434" gradientTransform="matrix(-1 0 0 1 5622.4331 0)">
					<stop  offset="0" style="stop-color:#AA80F9"/>
					<stop  offset="0.9964" style="stop-color:#6165D7"/>
				</linearGradient>
				<path style="fill:url(#SVGID_00000047061351799213218540000013343430904121873033_);" d="M655.028,2049.464
					c65.531-47.66,160.85-35.745,202.552-89.361c34.373-37.498,58.922-83.182,89.103-123.316
					c-9.725,56.824-12.226,71.742-12.208,71.979l0.045,0.59c2.368,10.654,6.767,27.455,15.032,46.937
					c21.565,50.833,43.182,58.008,40.527,77.714c-4.657,34.553-77.263,58.077-134.674,59.571
					c-30.428,0.791-34.028-5.192-60.063-6.279c-109.357-4.567-145.978,96.82-219.106,81.757
					c-51.978-10.707-60.338-68.168-126.421-70.951c-23.074-0.972-47.666,4.822-50.915-3.473c-3.169-8.09,16.046-24.261,32.827-33.61
					c17.723-9.874,35.52-13.682,50.956-14.968C540.731,2077.441,597.879,2093.912,655.028,2049.464z"/>
				
					<linearGradient id="SVGID_00000083808438397330830620000000148038769671627928_" gradientUnits="userSpaceOnUse" x1="4819.3979" y1="1996.8547" x2="4848.9932" y2="2041.4014" gradientTransform="matrix(-1 0 0 1 5622.4331 0)">
					<stop  offset="0" style="stop-color:#AB316D"/>
					<stop  offset="1" style="stop-color:#792D3D"/>
				</linearGradient>
				<path style="fill:url(#SVGID_00000083808438397330830620000000148038769671627928_);" d="M789.678,1968.709
					c0,0,39.62,28.385,43.76,50.266c4.139,21.88-36.073,44.942-48.491,23.062c-12.418-21.88-20.698-64.457-20.698-64.457
					L789.678,1968.709z"/>
				
					<linearGradient id="SVGID_00000012464391120944412050000007675141345354701991_" gradientUnits="userSpaceOnUse" x1="4822.5547" y1="1693.0621" x2="4989.6475" y2="1944.5695" gradientTransform="matrix(-1 0 0 1 5622.4331 0)">
					<stop  offset="0" style="stop-color:#AA80F9"/>
					<stop  offset="0.9964" style="stop-color:#6165D7"/>
				</linearGradient>
				<path style="fill:url(#SVGID_00000012464391120944412050000007675141345354701991_);" d="M796.774,1584.526
					c0,0-15.163-19.271-34.532-14.012c-11.176,3.034-19.731,7.345-23.447,10.363c-83.37,67.719-125.055,101.578-133.644,119.193
					c-28.509,58.471-33.781,144.678,7.549,201.423c0,0,16.216,22.264,152.535,93.038l0,0l39.424-22.077
					c-84.582-77.417-96.938-131.943-90.914-168.397c12.954-78.397,119.442-124.866,103.804-187.123
					C813.657,1601.438,803.629,1590.655,796.774,1584.526z"/>
				<path style="fill:#26264F;" d="M917.292,1486.316c2.845-0.379,7.441-1.374,12.148-4.361c8.991-5.705,12.05-14.596,13.082-17.755
					c2.487-7.609,1.617-13.783,0.311-23.051c-1.127-8.003-1.691-12.005-4.569-15.99c-4.61-6.384-8.836-4.398-16.612-10.799
					c-10.266-8.45-8.05-16.152-15.782-18.689c-5.386-1.768-7,1.792-18.482,1.246c-7.307-0.348-7.368-1.824-13.082-1.869
					c-8.252-0.065-10.397,2.994-21.804,6.23c-14.953,4.242-17.833,0.848-21.805,4.984c-6.481,6.748,0.193,16.812-6.853,23.673
					c-4.685,4.564-8.967,1.409-13.706,6.23c-4.75,4.834-1.596,9.174-5.607,20.973c-3.58,10.535-7.379,10.855-7.476,17.652
					c-0.053,3.768,1.103,4.405,6.542,17.443c5.679,13.618,4.788,13.811,7.164,16.82c5.368,6.799,8.991,4.636,17.754,12.46
					c8.406,7.502,8.18,12.263,13.395,13.082c5.843,0.918,7.49-4.846,16.198-5.607c7.629-0.667,10.008,3.44,14.951,1.869
					c6.382-2.029,7.959-10.631,10.591-16.82C887.244,1505.591,895.66,1494.927,917.292,1486.316z"/>
				
					<linearGradient id="SVGID_00000098199770861707681290000016044366489370680710_" gradientUnits="userSpaceOnUse" x1="-1761.707" y1="2041.6892" x2="-1755.3274" y2="1871.7567" gradientTransform="matrix(0.9949 0.1011 -0.1011 0.9949 2809.7947 -174.6883)">
					<stop  offset="0" style="stop-color:#AB316D"/>
					<stop  offset="1" style="stop-color:#792D3D"/>
				</linearGradient>
				<path style="fill:url(#SVGID_00000098199770861707681290000016044366489370680710_);" d="M861.582,1481.356
					c7.484,21.152,7.092,41.275-5.733,56.762c-11.296,13.64-27.619,11.917-28.096,18.335c-0.944,12.678,72.755,30.94,76.854,21.476
					c2.022-4.669-21.274-11.683-22.938-27.575c-0.692-6.607,1.682-11.578,15.56-37.234l5.939,1.235L861.582,1481.356z"/>
				
					<linearGradient id="SVGID_00000028286784497370188700000002503680348304966077_" gradientUnits="userSpaceOnUse" x1="4754.2456" y1="1550.4755" x2="4716.0361" y2="1452.4591" gradientTransform="matrix(-1 0 0 1 5622.4331 0)">
					<stop  offset="0" style="stop-color:#AB316D"/>
					<stop  offset="1" style="stop-color:#792D3D"/>
				</linearGradient>
				<path style="fill:url(#SVGID_00000028286784497370188700000002503680348304966077_);" d="M871.074,1513.889
					c0,0,1.786,21.03,22.578,21.439c25.619,0.504,29.44-67.059,23.265-71.012c-7.16-4.584-13.638,6.296-30.4,2.227
					c-7.057-1.713-13.046-10.907-16.776-1.146c-4.245,11.106-1.081,30.921-1.081,30.921s-6.015-5.107-7.036,0.919
					C860.287,1505.124,866.145,1510.149,871.074,1513.889z"/>
				<path style="fill:#444B8C;" d="M1133.088,2734.604c-3.042-5.02-25.626-4.334-37.418,1.007
					c-19.782,8.959-32.289,26.703-37.346,28.878c-11.53,4.96-21.639-0.832-22.604-0.645c0,0-8.555,14.396,4.184,22.626
					C1052.643,2794.701,1151.87,2765.595,1133.088,2734.604z"/>
			</g>
		</g>
	</g>
</g>
</svg>
