<svg id="visual" viewBox="0 0 1920 80" width="1920" height="80" xmlns="http://www.w3.org/2000/svg" xmlns:xlink="http://www.w3.org/1999/xlink" version="1.1"><path d="M0 15L45.7 16.3C91.3 17.7 182.7 20.3 274.2 22.3C365.7 24.3 457.3 25.7 548.8 24.2C640.3 22.7 731.7 18.3 823 16C914.3 13.7 1005.7 13.3 1097 12.7C1188.3 12 1279.7 11 1371.2 12C1462.7 13 1554.3 16 1645.8 18.5C1737.3 21 1828.7 23 1874.3 24L1920 25L1920 0L1874.3 0C1828.7 0 1737.3 0 1645.8 0C1554.3 0 1462.7 0 1371.2 0C1279.7 0 1188.3 0 1097 0C1005.7 0 914.3 0 823 0C731.7 0 640.3 0 548.8 0C457.3 0 365.7 0 274.2 0C182.7 0 91.3 0 45.7 0L0 0Z" fill="#e5e7eb" stroke-linecap="round" stroke-linejoin="miter"></path></svg>