<svg id="visual" viewBox="0 0 1920 120" width="1920" height="120" xmlns="http://www.w3.org/2000/svg" xmlns:xlink="http://www.w3.org/1999/xlink" version="1.1"><path d="M0 23L45.7 25C91.3 27 182.7 31 274.2 34C365.7 37 457.3 39 548.8 36.7C640.3 34.3 731.7 27.7 823 24.2C914.3 20.7 1005.7 20.3 1097 19.5C1188.3 18.7 1279.7 17.3 1371.2 18.8C1462.7 20.3 1554.3 24.7 1645.8 28.3C1737.3 32 1828.7 35 1874.3 36.5L1920 38L1920 0L1874.3 0C1828.7 0 1737.3 0 1645.8 0C1554.3 0 1462.7 0 1371.2 0C1279.7 0 1188.3 0 1097 0C1005.7 0 914.3 0 823 0C731.7 0 640.3 0 548.8 0C457.3 0 365.7 0 274.2 0C182.7 0 91.3 0 45.7 0L0 0Z" fill="#f1f5f9" stroke-linecap="round" stroke-linejoin="miter"></path></svg>